<svg width="243" height="14" viewBox="0 0 243 14" fill="none" xmlns="http://www.w3.org/2000/svg">
<path d="M12.734 0.399999C12.866 0.399999 12.98 0.447999 13.076 0.543999C13.172 0.64 13.22 0.754 13.22 0.885999V3.622C13.22 3.754 13.172 3.868 13.076 3.964C12.98 4.06 12.866 4.108 12.734 4.108H5.66V5.26H11.564C11.696 5.26 11.81 5.308 11.906 5.404C12.002 5.5 12.05 5.614 12.05 5.746V8.464C12.05 8.596 12.002 8.71 11.906 8.806C11.81 8.902 11.696 8.95 11.564 8.95H5.66V12.514C5.66 12.646 5.612 12.76 5.516 12.856C5.42 12.952 5.306 13 5.174 13H1.286C1.154 13 1.04 12.952 0.944 12.856C0.848 12.76 0.8 12.646 0.8 12.514V0.885999C0.8 0.754 0.848 0.64 0.944 0.543999C1.04 0.447999 1.154 0.399999 1.286 0.399999H12.734ZM19.351 12.388C19.195 12.796 18.925 13 18.541 13H15.139C15.031 13 14.935 12.964 14.851 12.892C14.779 12.808 14.743 12.712 14.743 12.604L14.761 12.496L18.685 0.993999C18.733 0.838 18.823 0.7 18.955 0.579999C19.087 0.459999 19.267 0.399999 19.495 0.399999H24.499C24.727 0.399999 24.907 0.459999 25.039 0.579999C25.171 0.7 25.261 0.838 25.309 0.993999L29.233 12.496L29.251 12.604C29.251 12.712 29.209 12.808 29.125 12.892C29.053 12.964 28.963 13 28.855 13H25.453C25.069 13 24.799 12.796 24.643 12.388L24.193 11.128H19.801L19.351 12.388ZM21.997 3.874L20.719 7.618H23.275L21.997 3.874ZM42.3839 6.43C42.8519 6.574 43.2539 6.892 43.5899 7.384C43.9259 7.864 44.0939 8.416 44.0939 9.04C44.0939 10.372 43.6619 11.368 42.7979 12.028C41.9339 12.676 40.6739 13 39.0179 13H31.6019C31.4699 13 31.3559 12.952 31.2599 12.856C31.1639 12.76 31.1159 12.646 31.1159 12.514V0.885999C31.1159 0.754 31.1639 0.64 31.2599 0.543999C31.3559 0.447999 31.4699 0.399999 31.6019 0.399999H38.8379C40.5419 0.399999 41.7959 0.711999 42.5999 1.336C43.4159 1.948 43.8239 2.878 43.8239 4.126V4.18C43.8239 4.756 43.6679 5.248 43.3559 5.656C43.0439 6.064 42.7199 6.322 42.3839 6.43ZM38.9459 4.288C38.9459 4.072 38.8799 3.886 38.7479 3.73C38.6279 3.574 38.4479 3.496 38.2079 3.496H35.7959V5.134H38.2079C38.4479 5.134 38.6279 5.05 38.7479 4.882C38.8799 4.702 38.9459 4.504 38.9459 4.288ZM38.4059 9.904C38.6819 9.904 38.8859 9.814 39.0179 9.634C39.1619 9.442 39.2339 9.232 39.2339 9.004V8.986C39.2339 8.758 39.1559 8.56 38.9999 8.392C38.8559 8.224 38.6579 8.14 38.4059 8.14H35.7959V9.904H38.4059ZM54.9769 9.31H58.2349C58.3669 9.31 58.4809 9.358 58.5769 9.454C58.6729 9.55 58.7209 9.664 58.7209 9.796V12.514C58.7209 12.646 58.6729 12.76 58.5769 12.856C58.4809 12.952 58.3669 13 58.2349 13H46.8229C46.6909 13 46.5769 12.952 46.4809 12.856C46.3849 12.76 46.3369 12.646 46.3369 12.514V9.796C46.3369 9.664 46.3849 9.55 46.4809 9.454C46.5769 9.358 46.6909 9.31 46.8229 9.31H50.1169V4.09H46.8229C46.6909 4.09 46.5769 4.042 46.4809 3.946C46.3849 3.85 46.3369 3.736 46.3369 3.604V0.885999C46.3369 0.754 46.3849 0.64 46.4809 0.543999C46.5769 0.447999 46.6909 0.399999 46.8229 0.399999H58.2349C58.3669 0.399999 58.4809 0.447999 58.5769 0.543999C58.6729 0.64 58.7209 0.754 58.7209 0.885999V3.604C58.7209 3.736 58.6729 3.85 58.5769 3.946C58.4809 4.042 58.3669 4.09 58.2349 4.09H54.9769V9.31ZM65.2299 12.388C65.0739 12.796 64.8039 13 64.4199 13H61.0179C60.9099 13 60.8139 12.964 60.7299 12.892C60.6579 12.808 60.6219 12.712 60.6219 12.604L60.6399 12.496L64.5639 0.993999C64.6119 0.838 64.7019 0.7 64.8339 0.579999C64.9659 0.459999 65.1459 0.399999 65.3739 0.399999H70.3779C70.6059 0.399999 70.7859 0.459999 70.9179 0.579999C71.0499 0.7 71.1399 0.838 71.1879 0.993999L75.1119 12.496L75.1299 12.604C75.1299 12.712 75.0879 12.808 75.0039 12.892C74.9319 12.964 74.8419 13 74.7339 13H71.3319C70.9479 13 70.6779 12.796 70.5219 12.388L70.0719 11.128H65.6799L65.2299 12.388ZM67.8759 3.874L66.5979 7.618H69.1539L67.8759 3.874ZM88.7488 0.399999C88.8808 0.399999 88.9948 0.447999 89.0908 0.543999C89.1868 0.64 89.2348 0.754 89.2348 0.885999V12.514C89.2348 12.646 89.1868 12.76 89.0908 12.856C88.9948 12.952 88.8808 13 88.7488 13H85.8508C85.5628 13 85.3228 12.874 85.1308 12.622L81.2068 7.618V12.514C81.2068 12.646 81.1588 12.76 81.0628 12.856C80.9668 12.952 80.8528 13 80.7208 13H77.3728C77.2408 13 77.1268 12.952 77.0308 12.856C76.9348 12.76 76.8868 12.646 76.8868 12.514V0.885999C76.8868 0.754 76.9348 0.64 77.0308 0.543999C77.1268 0.447999 77.2408 0.399999 77.3728 0.399999H80.2888C80.5768 0.399999 80.8108 0.519999 80.9908 0.76L84.9148 6.178V0.885999C84.9148 0.754 84.9628 0.64 85.0588 0.543999C85.1548 0.447999 85.2688 0.399999 85.4008 0.399999H88.7488ZM119.875 7.762C119.875 9.586 119.275 10.948 118.075 11.848C116.875 12.736 115.273 13.18 113.269 13.18C111.829 13.18 110.599 12.952 109.579 12.496C108.571 12.028 107.809 11.44 107.293 10.732C106.789 10.024 106.537 9.31 106.537 8.59C106.537 8.482 106.573 8.392 106.645 8.32C106.729 8.236 106.825 8.194 106.933 8.194H111.001C111.109 8.194 111.199 8.23 111.271 8.302C111.355 8.374 111.415 8.47 111.451 8.59C111.679 9.31 112.255 9.67 113.179 9.67C113.743 9.67 114.187 9.538 114.511 9.274C114.847 9.01 115.015 8.632 115.015 8.14V4.09H108.445C108.313 4.09 108.199 4.042 108.103 3.946C108.007 3.85 107.959 3.736 107.959 3.604V0.885999C107.959 0.754 108.007 0.64 108.103 0.543999C108.199 0.447999 108.313 0.399999 108.445 0.399999H119.389C119.521 0.399999 119.635 0.447999 119.731 0.543999C119.827 0.64 119.875 0.754 119.875 0.885999V7.762ZM135.69 7.798C135.69 9.634 135.078 10.99 133.854 11.866C132.642 12.742 131.022 13.18 128.994 13.18C126.966 13.18 125.34 12.742 124.116 11.866C122.904 10.99 122.298 9.622 122.298 7.762V5.638C122.298 4.414 122.586 3.4 123.162 2.596C123.75 1.78 124.548 1.18 125.556 0.795999C126.564 0.411999 127.71 0.219999 128.994 0.219999C130.278 0.219999 131.418 0.411999 132.414 0.795999C133.422 1.18 134.22 1.774 134.808 2.578C135.396 3.382 135.69 4.39 135.69 5.602V7.798ZM127.158 8.14C127.158 8.632 127.32 9.01 127.644 9.274C127.98 9.538 128.43 9.67 128.994 9.67C129.558 9.67 130.002 9.538 130.326 9.274C130.662 8.998 130.83 8.614 130.83 8.122V5.278C130.83 4.786 130.662 4.408 130.326 4.144C130.002 3.868 129.558 3.73 128.994 3.73C128.43 3.73 127.98 3.862 127.644 4.126C127.32 4.39 127.158 4.768 127.158 5.26V8.14ZM150.281 0.399999C150.413 0.399999 150.527 0.447999 150.623 0.543999C150.719 0.64 150.767 0.754 150.767 0.885999V12.514C150.767 12.646 150.719 12.76 150.623 12.856C150.527 12.952 150.413 13 150.281 13H146.573C146.441 13 146.327 12.952 146.231 12.856C146.135 12.76 146.087 12.646 146.087 12.514V8.68H142.487V12.514C142.487 12.646 142.439 12.76 142.343 12.856C142.247 12.952 142.133 13 142.001 13H138.293C138.161 13 138.047 12.958 137.951 12.874C137.855 12.778 137.807 12.658 137.807 12.514V0.885999C137.807 0.754 137.855 0.64 137.951 0.543999C138.047 0.447999 138.161 0.399999 138.293 0.399999H142.001C142.133 0.399999 142.247 0.447999 142.343 0.543999C142.439 0.64 142.487 0.754 142.487 0.885999V4.576H146.087V0.885999C146.087 0.754 146.135 0.64 146.231 0.543999C146.327 0.447999 146.441 0.399999 146.573 0.399999H150.281ZM156.988 12.388C156.832 12.796 156.562 13 156.178 13H152.776C152.668 13 152.572 12.964 152.488 12.892C152.416 12.808 152.38 12.712 152.38 12.604L152.398 12.496L156.322 0.993999C156.37 0.838 156.46 0.7 156.592 0.579999C156.724 0.459999 156.904 0.399999 157.132 0.399999H162.136C162.364 0.399999 162.544 0.459999 162.676 0.579999C162.808 0.7 162.898 0.838 162.946 0.993999L166.87 12.496L166.888 12.604C166.888 12.712 166.846 12.808 166.762 12.892C166.69 12.964 166.6 13 166.492 13H163.09C162.706 13 162.436 12.796 162.28 12.388L161.83 11.128H157.438L156.988 12.388ZM159.634 3.874L158.356 7.618H160.912L159.634 3.874ZM180.507 0.399999C180.639 0.399999 180.753 0.447999 180.849 0.543999C180.945 0.64 180.993 0.754 180.993 0.885999V12.514C180.993 12.646 180.945 12.76 180.849 12.856C180.753 12.952 180.639 13 180.507 13H177.609C177.321 13 177.081 12.874 176.889 12.622L172.965 7.618V12.514C172.965 12.646 172.917 12.76 172.821 12.856C172.725 12.952 172.611 13 172.479 13H169.131C168.999 13 168.885 12.952 168.789 12.856C168.693 12.76 168.645 12.646 168.645 12.514V0.885999C168.645 0.754 168.693 0.64 168.789 0.543999C168.885 0.447999 168.999 0.399999 169.131 0.399999H172.047C172.335 0.399999 172.569 0.519999 172.749 0.76L176.673 6.178V0.885999C176.673 0.754 176.721 0.64 176.817 0.543999C176.913 0.447999 177.027 0.399999 177.159 0.399999H180.507ZM191.156 4.972C192.476 5.116 193.532 5.35 194.324 5.674C195.128 5.998 195.71 6.424 196.07 6.952C196.43 7.48 196.61 8.14 196.61 8.932C196.61 9.796 196.328 10.552 195.764 11.2C195.212 11.836 194.444 12.328 193.46 12.676C192.476 13.012 191.354 13.18 190.094 13.18C188.69 13.18 187.502 13.006 186.53 12.658C185.558 12.31 184.832 11.848 184.352 11.272C183.872 10.684 183.632 10.042 183.632 9.346C183.632 9.226 183.668 9.13 183.74 9.058C183.824 8.986 183.926 8.95 184.046 8.95H187.736C187.988 8.95 188.192 9.028 188.348 9.184C188.552 9.376 188.78 9.508 189.032 9.58C189.284 9.64 189.638 9.67 190.094 9.67C191.234 9.67 191.804 9.496 191.804 9.148C191.804 9.004 191.726 8.884 191.57 8.788C191.426 8.68 191.162 8.59 190.778 8.518C190.406 8.434 189.854 8.35 189.122 8.266C187.478 8.074 186.218 7.666 185.342 7.042C184.466 6.406 184.028 5.512 184.028 4.36C184.028 3.544 184.274 2.824 184.766 2.2C185.258 1.576 185.954 1.09 186.854 0.741999C187.766 0.393999 188.822 0.219999 190.022 0.219999C191.27 0.219999 192.362 0.417999 193.298 0.813999C194.234 1.198 194.948 1.678 195.44 2.254C195.932 2.83 196.178 3.394 196.178 3.946C196.178 4.066 196.136 4.162 196.052 4.234C195.98 4.306 195.878 4.342 195.746 4.342H191.876C191.672 4.342 191.486 4.27 191.318 4.126C191.186 4.006 191.03 3.91 190.85 3.838C190.67 3.766 190.394 3.73 190.022 3.73C189.218 3.73 188.816 3.898 188.816 4.234C188.816 4.414 188.972 4.558 189.284 4.666C189.596 4.762 190.22 4.864 191.156 4.972ZM206.449 4.972C207.769 5.116 208.825 5.35 209.617 5.674C210.421 5.998 211.003 6.424 211.363 6.952C211.723 7.48 211.903 8.14 211.903 8.932C211.903 9.796 211.621 10.552 211.057 11.2C210.505 11.836 209.737 12.328 208.753 12.676C207.769 13.012 206.647 13.18 205.387 13.18C203.983 13.18 202.795 13.006 201.823 12.658C200.851 12.31 200.125 11.848 199.645 11.272C199.165 10.684 198.925 10.042 198.925 9.346C198.925 9.226 198.961 9.13 199.033 9.058C199.117 8.986 199.219 8.95 199.339 8.95H203.029C203.281 8.95 203.485 9.028 203.641 9.184C203.845 9.376 204.073 9.508 204.325 9.58C204.577 9.64 204.931 9.67 205.387 9.67C206.527 9.67 207.097 9.496 207.097 9.148C207.097 9.004 207.019 8.884 206.863 8.788C206.719 8.68 206.455 8.59 206.071 8.518C205.699 8.434 205.147 8.35 204.415 8.266C202.771 8.074 201.511 7.666 200.635 7.042C199.759 6.406 199.321 5.512 199.321 4.36C199.321 3.544 199.567 2.824 200.059 2.2C200.551 1.576 201.247 1.09 202.147 0.741999C203.059 0.393999 204.115 0.219999 205.315 0.219999C206.563 0.219999 207.655 0.417999 208.591 0.813999C209.527 1.198 210.241 1.678 210.733 2.254C211.225 2.83 211.471 3.394 211.471 3.946C211.471 4.066 211.429 4.162 211.345 4.234C211.273 4.306 211.171 4.342 211.039 4.342H207.169C206.965 4.342 206.779 4.27 206.611 4.126C206.479 4.006 206.323 3.91 206.143 3.838C205.963 3.766 205.687 3.73 205.315 3.73C204.511 3.73 204.109 3.898 204.109 4.234C204.109 4.414 204.265 4.558 204.577 4.666C204.889 4.762 205.513 4.864 206.449 4.972ZM227.448 7.798C227.448 9.634 226.836 10.99 225.612 11.866C224.4 12.742 222.78 13.18 220.752 13.18C218.724 13.18 217.098 12.742 215.874 11.866C214.662 10.99 214.056 9.622 214.056 7.762V5.638C214.056 4.414 214.344 3.4 214.92 2.596C215.508 1.78 216.306 1.18 217.314 0.795999C218.322 0.411999 219.468 0.219999 220.752 0.219999C222.036 0.219999 223.176 0.411999 224.172 0.795999C225.18 1.18 225.978 1.774 226.566 2.578C227.154 3.382 227.448 4.39 227.448 5.602V7.798ZM218.916 8.14C218.916 8.632 219.078 9.01 219.402 9.274C219.738 9.538 220.188 9.67 220.752 9.67C221.316 9.67 221.76 9.538 222.084 9.274C222.42 8.998 222.588 8.614 222.588 8.122V5.278C222.588 4.786 222.42 4.408 222.084 4.144C221.76 3.868 221.316 3.73 220.752 3.73C220.188 3.73 219.738 3.862 219.402 4.126C219.078 4.39 218.916 4.768 218.916 5.26V8.14ZM241.679 0.399999C241.811 0.399999 241.925 0.447999 242.021 0.543999C242.117 0.64 242.165 0.754 242.165 0.885999V12.514C242.165 12.646 242.117 12.76 242.021 12.856C241.925 12.952 241.811 13 241.679 13H238.781C238.493 13 238.253 12.874 238.061 12.622L234.137 7.618V12.514C234.137 12.646 234.089 12.76 233.993 12.856C233.897 12.952 233.783 13 233.651 13H230.303C230.171 13 230.057 12.952 229.961 12.856C229.865 12.76 229.817 12.646 229.817 12.514V0.885999C229.817 0.754 229.865 0.64 229.961 0.543999C230.057 0.447999 230.171 0.399999 230.303 0.399999H233.219C233.507 0.399999 233.741 0.519999 233.921 0.76L237.845 6.178V0.885999C237.845 0.754 237.893 0.64 237.989 0.543999C238.085 0.447999 238.199 0.399999 238.331 0.399999H241.679Z" fill="black"/>
</svg>
